<?xml version="1.0" encoding="iso-8859-1"?>
<!-- Generator: Adobe Illustrator 16.0.0, SVG Export Plug-In . SVG Version: 6.00 Build 0)  -->
<!DOCTYPE svg PUBLIC "-//W3C//DTD SVG 1.1//EN" "http://www.w3.org/Graphics/SVG/1.1/DTD/svg11.dtd">
<svg version="1.1" id="Capa_1" xmlns="http://www.w3.org/2000/svg" xmlns:xlink="http://www.w3.org/1999/xlink" x="0px" y="0px" 
	 height="30px" width = "30px" viewBox="0 0 79.536 79.536" style="enable-background:new 0 0 79.536 79.536;"
	 xml:space="preserve">
<g>
	<path style="fill:#010002;" d="M28.167,14.084c0,7.793-6.299,14.082-14.071,14.082C6.32,28.167,0,21.877,0,14.084
		C0,6.315,6.31,0.005,14.09,0.005C21.867,0.005,28.167,6.315,28.167,14.084z M14.09,51.373C6.31,51.373,0,57.668,0,65.447
		c0,7.777,6.31,14.084,14.09,14.084c7.777,0,14.072-6.307,14.072-14.084C28.162,57.668,21.867,51.373,14.09,51.373z M65.441,51.373
		c-7.777,0-14.074,6.296-14.074,14.074c0,7.777,6.297,14.084,14.074,14.084s14.095-6.307,14.095-14.084
		C79.536,57.668,73.219,51.373,65.441,51.373z M65.441,0.005c-7.777,0-14.074,6.31-14.074,14.079
		c0,7.793,6.297,14.082,14.074,14.082c7.777,0.005,14.095-6.289,14.095-14.082C79.536,6.315,73.219,0.005,65.441,0.005z
		 M39.763,25.684c-7.785,0-14.084,6.307-14.084,14.09c0,7.778,6.299,14.084,14.084,14.084c7.783,0,14.08-6.307,14.08-14.084
		C53.843,31.991,47.546,25.684,39.763,25.684z"/>
</g>
<g>
</g>
<g>
</g>
<g>
</g>
<g>
</g>
<g>
</g>
<g>
</g>
<g>
</g>
<g>
</g>
<g>
</g>
<g>
</g>
<g>
</g>
<g>
</g>
<g>
</g>
<g>
</g>
<g>
</g>
</svg>
